<svg width="22" height="21" viewBox="0 0 22 21" fill="none" xmlns="http://www.w3.org/2000/svg">
<path d="M12 3.5C12 4.60457 9.53757 5.5 6.5 5.5C3.46243 5.5 1 4.60457 1 3.5M12 3.5C12 2.39543 9.53757 1.5 6.5 1.5C3.46243 1.5 1 2.39543 1 3.5M12 3.5V5M1 3.5V15.5C1 16.6046 3.46243 17.5 6.5 17.5M6.5 9.5C6.33145 9.5 6.16468 9.49724 6 9.49185C3.19675 9.39999 1 8.54328 1 7.5M6.5 13.5C3.46243 13.5 1 12.6046 1 11.5M21 10C21 11.1046 18.5376 12 15.5 12C12.4624 12 10 11.1046 10 10M21 10C21 8.89543 18.5376 8 15.5 8C12.4624 8 10 8.89543 10 10M21 10V17.5C21 18.6046 18.5376 19.5 15.5 19.5C12.4624 19.5 10 18.6046 10 17.5V10M21 13.75C21 14.8546 18.5376 15.75 15.5 15.75C12.4624 15.75 10 14.8546 10 13.75" stroke="#5D5D5D" stroke-width="1.6" stroke-linecap="round" stroke-linejoin="round"/>
</svg>
